<svg width="24" height="26" viewBox="-2 0 23 19" fill="none" xmlns="http://www.w3.org/2000/svg">
<path d="M18.3578 9.50003C18.361 10.8199 18.0747 12.1219 17.5221 13.3C16.867 14.7118 15.8598 15.8992 14.6133 16.7293C13.3669 17.5594 11.9305 17.9994 10.465 18C9.23939 18.0035 8.03038 17.6951 6.93641 17.1L1.64355 19L3.40784 13.3C2.85528 12.1219 2.56893 10.8199 2.57213 9.50003C2.57269 7.92179 2.98127 6.37488 3.75208 5.03258C4.52289 3.69028 5.62551 2.6056 6.93641 1.90003C8.03038 1.30496 9.23939 0.996587 10.465 1.00003H10.9293C12.8647 1.11502 14.6928 1.99479 16.0635 3.47089C17.4341 4.94699 18.2511 6.91568 18.3578 9.00003V9.50003Z" fill="#FFC700" stroke="#FFC700" stroke-width="2" stroke-linecap="round" stroke-linejoin="round"/>
</svg>
