<svg width="35" height="35" viewBox="0 0 35 35" fill="none" xmlns="http://www.w3.org/2000/svg">
<rect x="0.500179" y="0.511967" width="33" height="33" rx="16.5" transform="rotate(-0.0204762 0.500179 0.511967)" stroke="#DBDBDB"/>
<rect x="0.500179" y="0.511967" width="33" height="33" rx="16.5" transform="rotate(-0.0204762 0.500179 0.511967)" stroke="#767676"/>
<path d="M24.5058 16.5867C24.5091 17.6866 24.2525 18.7717 23.757 19.7537C23.1694 20.9303 22.2659 21.9202 21.1475 22.6123C20.0292 23.3045 18.7402 23.6716 17.425 23.6726C16.3251 23.6758 15.24 23.4193 14.2581 22.9237L9.50866 24.5087L11.0903 19.7582C10.5941 18.7766 10.3367 17.6917 10.3392 16.5918C10.3392 15.2766 10.7054 13.9874 11.3968 12.8685C12.0881 11.7497 13.0773 10.8454 14.2536 10.2571C15.2351 9.76081 16.3201 9.50345 17.42 9.50592L17.8366 9.50577C19.5736 9.60098 21.2145 10.3335 22.445 11.5632C23.6755 12.7928 24.4092 14.4331 24.5057 16.1701L24.5058 16.5867Z" stroke="#767676" stroke-width="1.5" stroke-linecap="round" stroke-linejoin="round"/>
</svg>
