<svg width="34" height="34" viewBox="0 0 34 34" fill="none" xmlns="http://www.w3.org/2000/svg">
<rect x="0.5" y="0.5" width="33" height="33" rx="16.5" fill="white" stroke="#DBDBDB"/>
<path d="M21 13.667C22.3807 13.667 23.5 12.5477 23.5 11.167C23.5 9.78628 22.3807 8.66699 21 8.66699C19.6193 8.66699 18.5 9.78628 18.5 11.167C18.5 12.5477 19.6193 13.667 21 13.667Z" stroke="#767676" stroke-width="1.5" stroke-linecap="round" stroke-linejoin="round"/>
<path d="M11 19.5C12.3807 19.5 13.5 18.3807 13.5 17C13.5 15.6193 12.3807 14.5 11 14.5C9.61929 14.5 8.5 15.6193 8.5 17C8.5 18.3807 9.61929 19.5 11 19.5Z" stroke="#767676" stroke-width="1.5" stroke-linecap="round" stroke-linejoin="round"/>
<path d="M21 25.333C22.3807 25.333 23.5 24.2137 23.5 22.833C23.5 21.4523 22.3807 20.333 21 20.333C19.6193 20.333 18.5 21.4523 18.5 22.833C18.5 24.2137 19.6193 25.333 21 25.333Z" stroke="#767676" stroke-width="1.5" stroke-linecap="round" stroke-linejoin="round"/>
<path d="M13.1582 18.2578L18.8499 21.5745" stroke="#767676" stroke-width="1.5" stroke-linecap="round" stroke-linejoin="round"/>
<path d="M18.8415 12.4248L13.1582 15.7415" stroke="#767676" stroke-width="1.5" stroke-linecap="round" stroke-linejoin="round"/>
</svg>
