<svg width="24" height="24" viewBox="0 0 24 24" fill="none" xmlns="http://www.w3.org/2000/svg">
<path d="M19.4284 22V19C19.4284 17.9391 19.0371 16.9217 18.3405 16.1716C17.644 15.4214 16.6992 15 15.7141 15H8.28558C7.30049 15 6.35574 15.4214 5.65918 16.1716C4.96261 16.9217 4.57129 17.9391 4.57129 19V22" fill="#FFC700"/>
<path d="M19.4284 22V19C19.4284 17.9391 19.0371 16.9217 18.3405 16.1716C17.644 15.4214 16.6992 15 15.7141 15H8.28558C7.30049 15 6.35574 15.4214 5.65918 16.1716C4.96261 16.9217 4.57129 17.9391 4.57129 19V22" stroke="#FFC700" stroke-width="2" stroke-linecap="round" stroke-linejoin="round"/>
<path d="M4.57129 22H19.4284" stroke="#FFC700" stroke-width="2" stroke-linecap="round"/>
<path d="M12.0004 11C14.0518 11 15.7147 9.20914 15.7147 7C15.7147 4.79086 14.0518 3 12.0004 3C9.94908 3 8.28613 4.79086 8.28613 7C8.28613 9.20914 9.94908 11 12.0004 11Z" fill="#FFC700" stroke="#FFC700" stroke-width="2" stroke-linecap="round" stroke-linejoin="round"/>
</svg>
