<svg width="78" height="60" viewBox="0 0 78 60" fill="none" xmlns="http://www.w3.org/2000/svg">
<rect width="78" height="60" fill="#2E2C39"/>
<path d="M34.3369 50.0234V50.6777H26.3877V50.0234H34.3369ZM33.5752 43.9883V44.623H32.1982V47.6602H33.5557V48.2852H27.1104V47.6602H28.4678V44.623H27.0908V43.9883H33.5752ZM29.2295 47.6602H31.4463V44.623H29.2295V47.6602ZM42.9795 50.0723V50.7168H35.0303V50.0723H38.6045V48.4316H36.0264V45.7559H41.2217V44.3887H36.0068V43.7539H41.9736V46.3809H36.7881V47.7969H42.1787V48.4316H39.3564V50.0723H42.9795ZM50.8506 43.1094V47.6211H50.0791V43.1094H50.8506ZM50.8506 48.041V50.1113H45.9482V51.0684H51.1826V51.6934H45.1963V49.5352H50.0889V48.6562H45.167V48.041H50.8506ZM48.7607 43.7051V44.3203H47.8818V46.5371C48.3311 46.5127 48.7754 46.4688 49.1904 46.4199L49.2295 46.9863C47.4912 47.2402 45.4502 47.3086 43.917 47.3086L43.8193 46.6738C44.166 46.6738 44.542 46.6738 44.9326 46.6641V44.3203H44.0635V43.7051H48.7607ZM45.6748 46.6445C46.1533 46.6348 46.6465 46.6201 47.1396 46.5859V44.3203H45.6748V46.6445Z" fill="white"/>
<path d="M46.4284 34V31C46.4284 29.9391 46.0371 28.9217 45.3405 28.1716C44.644 27.4214 43.6992 27 42.7141 27H35.2856C34.3005 27 33.3557 27.4214 32.6592 28.1716C31.9626 28.9217 31.5713 29.9391 31.5713 31V34" stroke="white" stroke-width="2" stroke-linecap="round" stroke-linejoin="round"/>
<path d="M31.5713 34H46.4284" stroke="white" stroke-width="2" stroke-linecap="round"/>
<path d="M39.0004 23C41.0518 23 42.7147 21.2091 42.7147 19C42.7147 16.7909 41.0518 15 39.0004 15C36.9491 15 35.2861 16.7909 35.2861 19C35.2861 21.2091 36.9491 23 39.0004 23Z" stroke="white" stroke-width="2" stroke-linecap="round" stroke-linejoin="round"/>
</svg>
