<svg width="25" height="33" viewBox="0 0 25 33" fill="none" xmlns="http://www.w3.org/2000/svg">
<path d="M6.27597 9.4354L6.25938 9.44811L6.2439 9.46215C5.15875 10.4469 3.70222 11.8302 2.5859 13.1983C2.28919 13.5619 1.96987 14.0177 1.65393 14.5483C1.94286 13.7206 2.28674 12.9499 2.68495 12.296C3.56571 10.8497 4.60896 9.70128 5.49885 9.0122C5.94731 8.66494 6.33074 8.45468 6.61485 8.36758C6.75573 8.3244 6.84849 8.3189 6.90075 8.32469C6.92507 8.32739 6.93704 8.3321 6.9409 8.33387C6.94378 8.33519 6.94434 8.33578 6.94499 8.33645L6.94512 8.33659C6.99335 8.38635 7.00164 8.4227 7.0008 8.46475C6.9996 8.52455 6.97516 8.61949 6.90219 8.74858C6.75434 9.01012 6.48563 9.27491 6.27597 9.4354Z" fill="#FFC700" stroke="#FFC700"/>
<path d="M7.05176 13.7745C3.98304 15.8083 2.0943 21.7821 1.53548 24.311C3.59748 19.4971 4.75015 17.2074 9.34143 14.927C10.1559 14.5224 11.5264 13.9974 12.7835 13.7898C13.9148 13.6029 14.5593 13.0524 14.1481 12.2291C13.6342 11.2 10.4972 11.4911 7.05176 13.7745Z" fill="#FFC700"/>
<path d="M6.78652 23.8169C7.6503 23.1272 8.56709 22.5703 9.47402 22.2816C10.7387 21.8789 12.2135 21.6848 13.3754 21.7041C13.9596 21.7138 14.4337 21.7772 14.7523 21.8778C14.9123 21.9284 15.0051 21.9798 15.0511 22.0163C15.0551 22.0195 15.0585 22.0223 15.0613 22.0248C15.0608 22.0524 15.0523 22.0642 15.0423 22.0766C15.0174 22.1075 14.9572 22.1566 14.8372 22.2056C14.5937 22.3049 14.2583 22.3417 14.0191 22.3376C12.8245 22.3174 11.6241 22.4692 10.7294 22.6233C10.2804 22.7007 9.90466 22.7794 9.64031 22.8389C9.50808 22.8687 9.40353 22.8937 9.33144 22.9115C9.29539 22.9203 9.26744 22.9274 9.24819 22.9323L9.22589 22.9381L9.22357 22.9387L9.21323 22.9412L9.16947 22.9521C9.13194 22.9616 9.07795 22.9757 9.00923 22.9947C8.87184 23.0326 8.67534 23.0901 8.43367 23.1694C8.00353 23.3107 7.42796 23.5219 6.78652 23.8169Z" fill="#FFC700" stroke="#FFC700"/>
<path d="M18.4287 9.18727L19.3822 7.33152L20.3258 9.19232L20.7717 8.96619L20.3258 9.19232C20.4414 9.42038 20.6591 9.57942 20.9115 9.62025L22.9713 9.95339L21.493 11.4254C21.3118 11.6059 21.2278 11.8621 21.2669 12.1149L21.5865 14.1763L19.7292 13.2254C19.5016 13.1089 19.232 13.1082 19.0038 13.2235L17.1414 14.1645L17.472 12.1048C17.5125 11.8522 17.4299 11.5955 17.2496 11.4141L15.7792 9.93425L17.8407 9.61208C18.0933 9.57259 18.3119 9.41472 18.4287 9.18727Z" fill="#FFC700" stroke="#FFC700"/>
<path d="M17.6193 21.0476L17.2646 21.4L17.6193 21.0476L16.527 19.9483L18.0584 19.709C18.3111 19.6695 18.5296 19.5116 18.6465 19.2842L19.3548 17.9055L20.0558 19.2879C20.1714 19.516 20.3891 19.675 20.6415 19.7158L22.1717 19.9633L21.0735 21.0568C20.8923 21.2373 20.8083 21.4935 20.8475 21.7462L21.0849 23.2776L19.7051 22.5712C19.4775 22.4547 19.2079 22.454 18.9797 22.5693L19.1802 22.9661L18.9797 22.5693L17.5961 23.2683L17.8417 21.7382C17.8822 21.4857 17.7996 21.229 17.6193 21.0476Z" fill="#FFC700" stroke="#FFC700"/>
<path d="M9.15395 4.22666L9.24211 2.67933L10.4436 3.6586C10.6418 3.82017 10.9054 3.87725 11.1527 3.8122L12.6517 3.41792L12.0915 4.86279C11.9991 5.10123 12.0262 5.3695 12.1646 5.58461L13.0028 6.88811L11.4551 6.80195C11.1998 6.78774 10.953 6.89641 10.7912 7.09436L9.81022 8.29437L9.41393 6.79618L8.93053 6.92397L9.41393 6.79617C9.34854 6.54894 9.16887 6.34785 8.9305 6.25512L7.48606 5.69322L8.78876 4.85343C9.00368 4.71488 9.13941 4.48194 9.15395 4.22666ZM9.26438 2.28851L9.2644 2.28814L9.06472 2.27675L9.2644 2.28814C9.2644 2.28827 9.26439 2.28839 9.26438 2.28851Z" fill="#FFC700" stroke="#FFC700"/>
</svg>
