<svg width="75" height="17" viewBox="0 0 75 17" fill="none" xmlns="http://www.w3.org/2000/svg">
<path d="M3.78 16H0.8V1.72H8.98V4.2H3.78V7.88H8.62V10.36H3.78V16ZM16.0366 4.88C17.0499 4.88 17.9166 5.07333 18.6366 5.46C19.3699 5.84667 19.9366 6.40667 20.3366 7.14C20.7366 7.87333 20.9366 8.77333 20.9366 9.84V11.28H13.8966C13.9232 12.12 14.1699 12.78 14.6366 13.26C15.1166 13.74 15.7766 13.98 16.6166 13.98C17.3232 13.98 17.9632 13.9133 18.5366 13.78C19.1099 13.6333 19.7032 13.4133 20.3166 13.12V15.42C19.7832 15.6867 19.2166 15.88 18.6166 16C18.0299 16.1333 17.3166 16.2 16.4766 16.2C15.3832 16.2 14.4166 16 13.5766 15.6C12.7366 15.1867 12.0766 14.5667 11.5966 13.74C11.1166 12.9133 10.8766 11.8733 10.8766 10.62C10.8766 9.34 11.0899 8.28 11.5166 7.44C11.9566 6.58667 12.5632 5.94667 13.3366 5.52C14.1099 5.09333 15.0099 4.88 16.0366 4.88ZM16.0566 7C15.4832 7 15.0032 7.18667 14.6166 7.56C14.2432 7.93333 14.0232 8.51333 13.9566 9.3H18.1366C18.1366 8.86 18.0566 8.46667 17.8966 8.12C17.7499 7.77333 17.5232 7.5 17.2166 7.3C16.9099 7.1 16.5232 7 16.0566 7ZM30.973 12.76C30.973 13.4933 30.7996 14.12 30.453 14.64C30.1063 15.1467 29.5863 15.5333 28.893 15.8C28.1996 16.0667 27.3396 16.2 26.313 16.2C25.553 16.2 24.8996 16.1467 24.353 16.04C23.8063 15.9467 23.2596 15.7867 22.713 15.56V13.1C23.2996 13.3667 23.933 13.5867 24.613 13.76C25.293 13.9333 25.893 14.02 26.413 14.02C26.9996 14.02 27.413 13.9333 27.653 13.76C27.9063 13.5867 28.033 13.36 28.033 13.08C28.033 12.8933 27.9796 12.7267 27.873 12.58C27.7796 12.4333 27.5663 12.2667 27.233 12.08C26.8996 11.8933 26.3796 11.6533 25.673 11.36C24.993 11.0667 24.433 10.78 23.993 10.5C23.553 10.2067 23.2263 9.86 23.013 9.46C22.7996 9.04667 22.693 8.53333 22.693 7.92C22.693 6.90667 23.0863 6.14667 23.873 5.64C24.6596 5.13333 25.7063 4.88 27.013 4.88C27.693 4.88 28.3396 4.94667 28.953 5.08C29.5663 5.21333 30.1996 5.43333 30.853 5.74L29.953 7.88C29.593 7.72 29.2463 7.58 28.913 7.46C28.5796 7.34 28.253 7.24667 27.933 7.18C27.6263 7.11333 27.3063 7.08 26.973 7.08C26.533 7.08 26.1996 7.14 25.973 7.26C25.7596 7.38 25.653 7.56 25.653 7.8C25.653 7.97333 25.7063 8.13333 25.813 8.28C25.933 8.41333 26.153 8.56 26.473 8.72C26.8063 8.88 27.293 9.09333 27.933 9.36C28.5596 9.61333 29.0996 9.88 29.553 10.16C30.0063 10.4267 30.353 10.7667 30.593 11.18C30.8463 11.58 30.973 12.1067 30.973 12.76ZM37.8944 13.82C38.2277 13.82 38.5477 13.7867 38.8544 13.72C39.161 13.6533 39.4677 13.5733 39.7744 13.48V15.7C39.4544 15.8333 39.0544 15.9467 38.5744 16.04C38.1077 16.1467 37.5944 16.2 37.0344 16.2C36.381 16.2 35.7944 16.0933 35.2744 15.88C34.7677 15.6667 34.361 15.3 34.0544 14.78C33.761 14.2467 33.6144 13.5133 33.6144 12.58V7.32H32.1944V6.06L33.8344 5.06L34.6944 2.76H36.5944V5.08H39.6544V7.32H36.5944V12.58C36.5944 12.9933 36.7144 13.3067 36.9544 13.52C37.1944 13.72 37.5077 13.82 37.8944 13.82ZM44.9463 5.08V16H41.9663V5.08H44.9463ZM43.4663 0.799999C43.9063 0.799999 44.2863 0.906666 44.6063 1.12C44.9263 1.32 45.0863 1.7 45.0863 2.26C45.0863 2.80667 44.9263 3.18667 44.6063 3.4C44.2863 3.61333 43.9063 3.72 43.4663 3.72C43.0129 3.72 42.6263 3.61333 42.3063 3.4C41.9996 3.18667 41.8463 2.80667 41.8463 2.26C41.8463 1.7 41.9996 1.32 42.3063 1.12C42.6263 0.906666 43.0129 0.799999 43.4663 0.799999ZM50.66 16L46.5 5.08H49.62L51.72 11.3C51.8 11.54 51.8667 11.7933 51.92 12.06C51.9867 12.3267 52.0333 12.5867 52.06 12.84C52.1 13.0933 52.1267 13.3267 52.14 13.54H52.22C52.2333 13.3133 52.26 13.0733 52.3 12.82C52.34 12.5667 52.3867 12.3133 52.44 12.06C52.5067 11.7933 52.58 11.54 52.66 11.3L54.76 5.08H57.88L53.72 16H50.66ZM63.9267 4.86C65.3934 4.86 66.5134 5.18 67.2867 5.82C68.0734 6.44667 68.4667 7.41333 68.4667 8.72V16H66.3867L65.8067 14.52H65.7267C65.4201 14.9067 65.1001 15.2267 64.7667 15.48C64.4467 15.7333 64.0734 15.9133 63.6467 16.02C63.2334 16.14 62.7201 16.2 62.1067 16.2C61.4667 16.2 60.8867 16.08 60.3667 15.84C59.8601 15.5867 59.4601 15.2067 59.1667 14.7C58.8734 14.18 58.7267 13.5267 58.7267 12.74C58.7267 11.58 59.1334 10.7267 59.9467 10.18C60.7601 9.62 61.9801 9.31333 63.6067 9.26L65.5067 9.2V8.72C65.5067 8.14667 65.3534 7.72667 65.0467 7.46C64.7534 7.19333 64.3401 7.06 63.8067 7.06C63.2734 7.06 62.7534 7.14 62.2467 7.3C61.7401 7.44667 61.2334 7.63333 60.7267 7.86L59.7467 5.84C60.3334 5.53333 60.9801 5.29333 61.6867 5.12C62.4067 4.94667 63.1534 4.86 63.9267 4.86ZM64.3467 10.98C63.3867 11.0067 62.7201 11.18 62.3467 11.5C61.9734 11.82 61.7867 12.24 61.7867 12.76C61.7867 13.2133 61.9201 13.54 62.1867 13.74C62.4534 13.9267 62.8001 14.02 63.2267 14.02C63.8667 14.02 64.4067 13.8333 64.8467 13.46C65.2867 13.0733 65.5067 12.5333 65.5067 11.84V10.94L64.3467 10.98ZM74.497 16H71.517V0.799999H74.497V16Z" fill="#FFC700"/>
</svg>
