<svg width="218" height="226" viewBox="0 0 218 226" fill="none" xmlns="http://www.w3.org/2000/svg">
<path d="M76.2921 126.428V122.069L87.2225 104.849H90.981V110.883H88.7566L81.8659 121.788V121.992H97.3986V126.428H76.2921ZM88.8588 131.031V125.099L88.9611 123.169V104.849H94.1515V131.031H88.8588ZM111.352 131.606C109.154 131.598 107.262 131.056 105.676 129.982C104.1 128.909 102.885 127.353 102.033 125.316C101.189 123.279 100.771 120.829 100.78 117.965C100.78 115.11 101.202 112.677 102.046 110.666C102.898 108.654 104.112 107.125 105.689 106.076C107.274 105.019 109.162 104.491 111.352 104.491C113.543 104.491 115.426 105.019 117.003 106.076C118.588 107.133 119.807 108.667 120.659 110.678C121.512 112.681 121.933 115.11 121.925 117.965C121.925 120.838 121.499 123.292 120.646 125.329C119.803 127.366 118.593 128.921 117.016 129.995C115.439 131.069 113.551 131.606 111.352 131.606ZM111.352 127.017C112.852 127.017 114.05 126.262 114.945 124.754C115.84 123.245 116.283 120.982 116.274 117.965C116.274 115.98 116.07 114.326 115.661 113.005C115.26 111.684 114.689 110.691 113.948 110.026C113.215 109.362 112.35 109.029 111.352 109.029C109.861 109.029 108.668 109.775 107.773 111.267C106.878 112.758 106.426 114.991 106.418 117.965C106.418 119.977 106.618 121.656 107.019 123.002C107.428 124.34 108.003 125.346 108.744 126.019C109.486 126.684 110.355 127.017 111.352 127.017ZM125.476 126.428V122.069L136.406 104.849H140.165V110.883H137.94L131.05 121.788V121.992H146.582V126.428H125.476ZM138.042 131.031V125.099L138.145 123.169V104.849H143.335V131.031H138.042Z" fill="#C2C2C2"/>
<path d="M141 140.375L93.0968 59L87 77.375L116.613 150L141 140.375Z" fill="#D9D9D9" fill-opacity="0.3"/>
<path d="M176 124.308L125.853 73.5385L121 71L149.309 137L176 124.308Z" fill="#D9D9D9" fill-opacity="0.3"/>
<path d="M98.2596 157.369L77.4788 104.107L72.3122 117.425L80.84 164.537L98.2596 157.369Z" fill="#D9D9D9" fill-opacity="0.3"/>
<path d="M52.8837 175.144L96.6649 47.5096L178.009 124.638L52.8837 175.144Z" stroke="#C2C2C2" stroke-width="4"/>
<path d="M162.805 1.10434e-05L131.481 5.95674L145.839 66.9982L161.541 66.7677L162.805 1.10434e-05Z" fill="#C2C2C2"/>
<path d="M149.492 86.5767L147.648 75.6097L161.668 75.404L161.829 86.3956L149.492 86.5767Z" fill="#C2C2C2"/>
<path d="M198.947 31.2658L176.856 28.1416L172.854 71.308L183.318 74.6775L198.947 31.2658Z" fill="#C2C2C2"/>
<path d="M170.939 84.9397L172.146 77.3493L181.489 80.3577L179.161 87.5872L170.939 84.9397Z" fill="#C2C2C2"/>
<path d="M39.0519 150.758C50.8144 145.334 53.0247 128.892 23.9641 127.12C9.98917 126.267 38.5788 127.574 41.8899 115.424C45.7106 101.404 20.9485 96.2489 28.9965 96.9371C62.1024 99.7678 61.5211 79.3053 61.5211 79.3053" stroke="#C2C2C2" stroke-width="4" stroke-linecap="round"/>
</svg>
