<svg width="24" height="24" viewBox="0 0 24 24" fill="none" xmlns="http://www.w3.org/2000/svg">
<path d="M5.74118 8.15852L5.72459 8.17123L5.70911 8.18527C4.62396 9.17002 3.16743 10.5533 2.05111 11.9214C1.7544 12.285 1.43508 12.7408 1.11914 13.2714C1.40807 12.4437 1.75195 11.673 2.15016 11.0191C3.03092 9.57282 4.07417 8.4244 4.96406 7.73532C5.41252 7.38806 5.79595 7.1778 6.08006 7.0907C6.22094 7.04752 6.3137 7.04202 6.36596 7.04781C6.39028 7.05051 6.40225 7.05522 6.40611 7.05699C6.40899 7.05831 6.40955 7.0589 6.4102 7.05957C6.45843 7.10933 6.46685 7.14582 6.46601 7.18787C6.46481 7.24767 6.44037 7.34261 6.3674 7.4717C6.21955 7.73324 5.95084 7.99803 5.74118 8.15852Z" stroke="#FFC700"/>
<path d="M6.51628 12.4975C3.44756 14.5313 1.55882 20.5051 1 23.034C3.062 18.2201 4.21467 15.9304 8.80595 13.65C9.62042 13.2454 10.9909 12.7204 12.248 12.5128C13.3793 12.3259 14.0238 11.7754 13.6126 10.9521C13.0987 9.92297 9.96172 10.2141 6.51628 12.4975Z" fill="#FFC700"/>
<path d="M6.25098 22.5399C7.11476 21.8502 8.03155 21.2933 8.93848 21.0046C10.2032 20.6019 11.678 20.4078 12.8399 20.4271C13.4241 20.4368 13.8982 20.5002 14.2168 20.6008C14.3768 20.6514 14.4696 20.7028 14.5156 20.7393C14.5196 20.7425 14.523 20.7453 14.5258 20.7478C14.5253 20.7754 14.5168 20.7872 14.5068 20.7996C14.4819 20.8305 14.4217 20.8796 14.3017 20.9286C14.0582 21.0279 13.7228 21.0647 13.4836 21.0606C12.289 21.0404 11.0886 21.1922 10.1939 21.3463C9.74486 21.4237 9.36912 21.5024 9.10477 21.5619C8.97254 21.5917 8.86799 21.6167 8.7959 21.6345C8.75985 21.6433 8.7319 21.6504 8.71265 21.6553L8.69035 21.6611L8.68803 21.6617L8.67769 21.6642L8.63393 21.6751C8.5964 21.6846 8.54241 21.6987 8.47369 21.7177C8.3363 21.7556 8.1398 21.8131 7.89813 21.8924C7.46799 22.0337 6.89242 22.2449 6.25098 22.5399Z" fill="#FFC700" stroke="#FFC700"/>
<path d="M17.8936 7.91044L18.8471 6.05469L19.7907 7.91549C19.9063 8.14355 20.124 8.30259 20.3764 8.34342L22.4362 8.67656L20.9579 10.1486C20.7767 10.3291 20.6927 10.5853 20.7318 10.8381L21.0514 12.8995L19.1941 11.9486C18.9665 11.8321 18.6969 11.8314 18.4687 11.9467L16.6063 12.8877L16.9369 10.828C16.9774 10.5754 16.8948 10.3187 16.7145 10.1373L15.2441 8.65742L17.3056 8.33525C17.5582 8.29576 17.7768 8.13789 17.8936 7.91044Z" fill="#FFC700"/>
<path d="M19.7907 7.91549L18.8471 6.05469L17.8936 7.91044C17.7768 8.13789 17.5582 8.29576 17.3056 8.33525L15.2441 8.65742L16.7145 10.1373C16.8948 10.3187 16.9774 10.5754 16.9369 10.828L16.6063 12.8877L18.4687 11.9467C18.6969 11.8314 18.9665 11.8321 19.1941 11.9486L21.0514 12.8995L20.7318 10.8381C20.6927 10.5853 20.7767 10.3291 20.9579 10.1486L22.4362 8.67656L20.3764 8.34342C20.124 8.30259 19.9063 8.14355 19.7907 7.91549ZM19.7907 7.91549L20.2366 7.68936" stroke="#FFC700"/>
<path d="M17.0845 19.7705L15.9922 18.6712L17.5236 18.4319C17.7763 18.3924 17.9948 18.2345 18.1117 18.0071L18.82 16.6284L19.521 18.0108C19.6366 18.2389 19.8543 18.3979 20.1067 18.4387L21.6369 18.6862L20.5387 19.7797C20.3575 19.9602 20.2735 20.2164 20.3127 20.4691L20.5501 22.0005L19.1703 21.2941C18.9427 21.1776 18.6731 21.1769 18.4449 21.2922L17.0613 21.9912L17.3069 20.4611C17.3474 20.2086 17.2648 19.9519 17.0845 19.7705Z" fill="#FFC700"/>
<path d="M17.0845 19.7705L16.7298 20.1229M17.0845 19.7705L15.9922 18.6712L17.5236 18.4319C17.7763 18.3924 17.9948 18.2345 18.1117 18.0071L18.82 16.6284L19.521 18.0108C19.6366 18.2389 19.8543 18.3979 20.1067 18.4387L21.6369 18.6862L20.5387 19.7797C20.3575 19.9602 20.2735 20.2164 20.3127 20.4691L20.5501 22.0005L19.1703 21.2941C18.9427 21.1776 18.6731 21.1769 18.4449 21.2922M17.0845 19.7705C17.2648 19.9519 17.3474 20.2086 17.3069 20.4611L17.0613 21.9912L18.4449 21.2922M18.4449 21.2922L18.6454 21.689" stroke="#FFC700"/>
<path d="M8.61906 2.94991L8.70722 1.40258L9.90871 2.38185C10.1069 2.54342 10.3705 2.6005 10.6178 2.53545L12.1168 2.14117L11.5566 3.58604C11.4642 3.82448 11.4913 4.09275 11.6297 4.30786L12.4679 5.61136L10.9202 5.5252C10.6649 5.51099 10.4181 5.61966 10.2563 5.81761L9.27533 7.01762L8.87904 5.51943C8.81365 5.2722 8.63398 5.0711 8.39561 4.97837L6.95117 4.41647L8.25387 3.57668C8.46879 3.43813 8.60452 3.20519 8.61906 2.94991ZM8.72949 1.01176C8.7295 1.01164 8.72949 1.01189 8.72949 1.01176Z" fill="#FFC700"/>
<path d="M8.87904 5.51943L9.27533 7.01762L10.2563 5.81761C10.4181 5.61966 10.6649 5.51099 10.9202 5.5252L12.4679 5.61136L11.6297 4.30786C11.4913 4.09275 11.4642 3.82448 11.5566 3.58604L12.1168 2.14117L10.6178 2.53545C10.3705 2.6005 10.1069 2.54342 9.90871 2.38185L8.70722 1.40258L8.61906 2.94991C8.60452 3.20519 8.46879 3.43813 8.25387 3.57668L6.95117 4.41647L8.39561 4.97837C8.63398 5.0711 8.81365 5.2722 8.87904 5.51943ZM8.87904 5.51943L8.39564 5.64722M8.72949 1.01176L8.52983 1M8.72949 1.01176C8.72949 1.01189 8.7295 1.01164 8.72949 1.01176Z" stroke="#FFC700"/>
</svg>
