<svg width="24" height="24" viewBox="0 0 28 24" fill="none" xmlns="http://www.w3.org/2000/svg">
<path d="M9.6276 12H22.4609" stroke="white" stroke-width="2" stroke-linecap="round" stroke-linejoin="round"/>
<path d="M16.0443 5.58366L22.4609 12.0003L16.0443 18.417" stroke="white" stroke-width="2" stroke-linecap="round" stroke-linejoin="round"/>
<mask id="path-3-inside-1_1071_6525" fill="white">
<path fill-rule="evenodd" clip-rule="evenodd" d="M0 2C0 0.895431 0.89543 0 2 0H16.045C16.5973 0 17.045 0.447715 17.045 1C17.045 1.55228 16.5973 2 16.045 2L2 2V22H16.045C16.5973 22 17.045 22.4477 17.045 23C17.045 23.5523 16.5973 24 16.045 24H2C0.89543 24 0 23.1046 0 22V2Z"/>
</mask>
<path d="M16.045 2V-1H16.045L16.045 2ZM2 2L2 -1L-1 -1V2H2ZM2 22H-1V25H2V22ZM2 -3C-0.761426 -3 -3 -0.761421 -3 2H3C3 2.55228 2.55229 3 2 3V-3ZM16.045 -3H2V3H16.045V-3ZM20.045 1C20.045 -1.20914 18.2541 -3 16.045 -3V3C14.9404 3 14.045 2.10457 14.045 1H20.045ZM16.045 5C18.2541 5 20.045 3.20914 20.045 1H14.045C14.045 -0.104572 14.9404 -1 16.045 -1V5ZM2 5L16.045 5L16.045 -1L2 -1L2 5ZM5 22V2H-1V22H5ZM16.045 19H2V25H16.045V19ZM20.045 23C20.045 20.7909 18.2541 19 16.045 19V25C14.9404 25 14.045 24.1046 14.045 23H20.045ZM16.045 27C18.2541 27 20.045 25.2091 20.045 23H14.045C14.045 21.8954 14.9404 21 16.045 21V27ZM2 27H16.045V21H2V27ZM-3 22C-3 24.7614 -0.761427 27 2 27V21C2.55229 21 3 21.4477 3 22H-3ZM-3 2V22H3V2H-3Z" fill="white" mask="url(#path-3-inside-1_1071_6525)"/>
</svg>
