<svg width="56" height="46" viewBox="0 0 56 46" fill="none" xmlns="http://www.w3.org/2000/svg">
<path d="M16.6628 0.8C16.8868 0.8 17.0788 0.88 17.2388 1.04C17.3988 1.184 17.4788 1.368 17.4788 1.592V20.264C17.4788 20.504 17.3988 20.696 17.2388 20.84C17.0788 20.984 16.8868 21.056 16.6628 21.056H13.8788C13.6548 21.056 13.4708 20.984 13.3268 20.84C13.1828 20.696 13.1108 20.504 13.1108 20.264V9.176L11.4068 12.704C11.2948 12.928 11.1908 13.088 11.0948 13.184C10.9988 13.264 10.8388 13.304 10.6148 13.304H7.32681C7.15081 13.288 7.01481 13.24 6.91881 13.16C6.82281 13.08 6.72681 12.928 6.63081 12.704L4.87881 9.104V20.264C4.87881 20.504 4.79881 20.696 4.63881 20.84C4.49481 20.984 4.31081 21.056 4.08681 21.056H1.30281C1.07881 21.056 0.886813 20.984 0.726813 20.84C0.582813 20.696 0.510813 20.504 0.510813 20.264V1.592C0.510813 1.368 0.582813 1.184 0.726813 1.04C0.886813 0.88 1.07881 0.8 1.30281 0.8H4.20681C4.43081 0.8 4.59881 0.848 4.71081 0.943999C4.83881 1.04 4.96681 1.192 5.09481 1.4L9.00681 8.384L12.9428 1.4C13.0708 1.192 13.1908 1.04 13.3028 0.943999C13.4308 0.848 13.6068 0.8 13.8308 0.8H16.6628ZM19.7296 9.224C19.7296 7.928 19.8816 6.752 20.1856 5.696C20.4896 4.624 20.9536 3.704 21.5776 2.936C22.1856 2.168 22.9536 1.584 23.8816 1.184C24.8256 0.767999 25.9536 0.559999 27.2656 0.559999H29.6416C30.9376 0.559999 32.0576 0.767999 33.0016 1.184C33.9456 1.584 34.7296 2.168 35.3536 2.936C35.9616 3.704 36.4176 4.624 36.7216 5.696C37.0256 6.752 37.1776 7.928 37.1776 9.224V12.632C37.1776 13.928 37.0256 15.112 36.7216 16.184C36.4176 17.24 35.9616 18.152 35.3536 18.92C34.7296 19.688 33.9456 20.272 33.0016 20.672C32.0576 21.088 30.9376 21.296 29.6416 21.296H27.2656C25.9536 21.296 24.8256 21.088 23.8816 20.672C22.9536 20.272 22.1856 19.688 21.5776 18.92C20.9536 18.152 20.4896 17.24 20.1856 16.184C19.8816 15.112 19.7296 13.928 19.7296 12.632V9.224ZM27.5056 4.64C27.0416 4.64 26.6336 4.776 26.2816 5.048C25.9456 5.304 25.6656 5.648 25.4416 6.08C25.2016 6.544 25.0176 7.064 24.8896 7.64C24.7776 8.216 24.7216 8.832 24.7216 9.488V12.368C24.7216 13.024 24.7776 13.648 24.8896 14.24C25.0176 14.816 25.2016 15.32 25.4416 15.752C25.6656 16.216 25.9456 16.576 26.2816 16.832C26.6336 17.088 27.0416 17.216 27.5056 17.216H29.4016C29.8656 17.216 30.2656 17.088 30.6016 16.832C30.9536 16.576 31.2416 16.216 31.4656 15.752C31.7056 15.32 31.8816 14.816 31.9936 14.24C32.1216 13.648 32.1856 13.024 32.1856 12.368V9.488C32.1856 8.832 32.1216 8.216 31.9936 7.64C31.8816 7.064 31.7056 6.544 31.4656 6.08C31.2416 5.648 30.9536 5.304 30.6016 5.048C30.2656 4.776 29.8656 4.64 29.4016 4.64H27.5056ZM48.3072 24.224C49.6192 24.224 50.7232 24.456 51.6192 24.92C52.5312 25.384 53.2752 26.024 53.8512 26.84C54.4112 27.64 54.8192 28.568 55.0752 29.624C55.3472 30.68 55.4832 31.808 55.4832 33.008V44.264C55.4832 44.488 55.4032 44.672 55.2432 44.816C55.0992 44.976 54.9152 45.056 54.6912 45.056H51.3072C51.0832 45.056 50.8912 44.976 50.7312 44.816C50.5872 44.672 50.5152 44.488 50.5152 44.264V38.024H43.9872V44.264C43.9872 44.488 43.9072 44.672 43.7472 44.816C43.5872 44.976 43.3952 45.056 43.1712 45.056H39.7632C39.5392 45.056 39.3552 44.976 39.2112 44.816C39.0672 44.672 38.9952 44.488 38.9952 44.264V33.008C38.9952 31.808 39.1232 30.68 39.3792 29.624C39.6512 28.568 40.0752 27.64 40.6512 26.84C41.2112 26.024 41.9392 25.384 42.8352 24.92C43.7472 24.456 44.8592 24.224 46.1712 24.224H48.3072ZM46.9392 28.448C46.4592 28.448 46.0352 28.584 45.6672 28.856C45.2992 29.128 44.9872 29.48 44.7312 29.912C44.4912 30.344 44.3072 30.856 44.1792 31.448C44.0512 32.04 43.9872 32.648 43.9872 33.272V33.584H50.4912V33.272C50.4912 32.648 50.4272 32.04 50.2992 31.448C50.1712 30.856 49.9872 30.344 49.7472 29.912C49.4912 29.48 49.1792 29.128 48.8112 28.856C48.4432 28.584 48.0192 28.448 47.5392 28.448H46.9392Z" fill="#FFC700"/>
<path d="M48.3072 0.223999C49.6192 0.223999 50.7232 0.455999 51.6192 0.92C52.5312 1.384 53.2752 2.024 53.8512 2.84C54.4112 3.64 54.8192 4.568 55.0752 5.624C55.3472 6.68 55.4832 7.808 55.4832 9.008V20.264C55.4832 20.488 55.4032 20.672 55.2432 20.816C55.0992 20.976 54.9152 21.056 54.6912 21.056H51.3072C51.0832 21.056 50.8912 20.976 50.7312 20.816C50.5872 20.672 50.5152 20.488 50.5152 20.264V14.024H43.9872V20.264C43.9872 20.488 43.9072 20.672 43.7472 20.816C43.5872 20.976 43.3952 21.056 43.1712 21.056H39.7632C39.5392 21.056 39.3552 20.976 39.2112 20.816C39.0672 20.672 38.9952 20.488 38.9952 20.264V9.008C38.9952 7.808 39.1232 6.68 39.3792 5.624C39.6512 4.568 40.0752 3.64 40.6512 2.84C41.2112 2.024 41.9392 1.384 42.8352 0.92C43.7472 0.455999 44.8592 0.223999 46.1712 0.223999H48.3072ZM46.9392 4.448C46.4592 4.448 46.0352 4.584 45.6672 4.856C45.2992 5.128 44.9872 5.48 44.7312 5.912C44.4912 6.344 44.3072 6.856 44.1792 7.448C44.0512 8.04 43.9872 8.648 43.9872 9.272V9.584H50.4912V9.272C50.4912 8.648 50.4272 8.04 50.2992 7.448C50.1712 6.856 49.9872 6.344 49.7472 5.912C49.4912 5.48 49.1792 5.128 48.8112 4.856C48.4432 4.584 48.0192 4.448 47.5392 4.448H46.9392ZM16.6628 24.8C16.8868 24.8 17.0788 24.88 17.2388 25.04C17.3988 25.184 17.4788 25.368 17.4788 25.592V44.264C17.4788 44.504 17.3988 44.696 17.2388 44.84C17.0788 44.984 16.8868 45.056 16.6628 45.056H13.8788C13.6548 45.056 13.4708 44.984 13.3268 44.84C13.1828 44.696 13.1108 44.504 13.1108 44.264V33.176L11.4068 36.704C11.2948 36.928 11.1908 37.088 11.0948 37.184C10.9988 37.264 10.8388 37.304 10.6148 37.304H7.32681C7.15081 37.288 7.01481 37.24 6.91881 37.16C6.82281 37.08 6.72681 36.928 6.63081 36.704L4.87881 33.104V44.264C4.87881 44.504 4.79881 44.696 4.63881 44.84C4.49481 44.984 4.31081 45.056 4.08681 45.056H1.30281C1.07881 45.056 0.886813 44.984 0.726813 44.84C0.582813 44.696 0.510813 44.504 0.510813 44.264V25.592C0.510813 25.368 0.582813 25.184 0.726813 25.04C0.886813 24.88 1.07881 24.8 1.30281 24.8H4.20681C4.43081 24.8 4.59881 24.848 4.71081 24.944C4.83881 25.04 4.96681 25.192 5.09481 25.4L9.00681 32.384L12.9428 25.4C13.0708 25.192 13.1908 25.04 13.3028 24.944C13.4308 24.848 13.6068 24.8 13.8308 24.8H16.6628ZM19.7296 33.224C19.7296 31.928 19.8816 30.752 20.1856 29.696C20.4896 28.624 20.9536 27.704 21.5776 26.936C22.1856 26.168 22.9536 25.584 23.8816 25.184C24.8256 24.768 25.9536 24.56 27.2656 24.56H29.6416C30.9376 24.56 32.0576 24.768 33.0016 25.184C33.9456 25.584 34.7296 26.168 35.3536 26.936C35.9616 27.704 36.4176 28.624 36.7216 29.696C37.0256 30.752 37.1776 31.928 37.1776 33.224V36.632C37.1776 37.928 37.0256 39.112 36.7216 40.184C36.4176 41.24 35.9616 42.152 35.3536 42.92C34.7296 43.688 33.9456 44.272 33.0016 44.672C32.0576 45.088 30.9376 45.296 29.6416 45.296H27.2656C25.9536 45.296 24.8256 45.088 23.8816 44.672C22.9536 44.272 22.1856 43.688 21.5776 42.92C20.9536 42.152 20.4896 41.24 20.1856 40.184C19.8816 39.112 19.7296 37.928 19.7296 36.632V33.224ZM27.5056 28.64C27.0416 28.64 26.6336 28.776 26.2816 29.048C25.9456 29.304 25.6656 29.648 25.4416 30.08C25.2016 30.544 25.0176 31.064 24.8896 31.64C24.7776 32.216 24.7216 32.832 24.7216 33.488V36.368C24.7216 37.024 24.7776 37.648 24.8896 38.24C25.0176 38.816 25.2016 39.32 25.4416 39.752C25.6656 40.216 25.9456 40.576 26.2816 40.832C26.6336 41.088 27.0416 41.216 27.5056 41.216H29.4016C29.8656 41.216 30.2656 41.088 30.6016 40.832C30.9536 40.576 31.2416 40.216 31.4656 39.752C31.7056 39.32 31.8816 38.816 31.9936 38.24C32.1216 37.648 32.1856 37.024 32.1856 36.368V33.488C32.1856 32.832 32.1216 32.216 31.9936 31.64C31.8816 31.064 31.7056 30.544 31.4656 30.08C31.2416 29.648 30.9536 29.304 30.6016 29.048C30.2656 28.776 29.8656 28.64 29.4016 28.64H27.5056Z" fill="#87B7E4"/>
</svg>
