<svg width="24" height="28" viewBox="0 0 24 26" fill="none" xmlns="http://www.w3.org/2000/svg">
<path d="M20.3454 12.3318C20.3751 13.6513 20.1149 14.9588 19.5861 16.1478C18.9594 17.5724 17.9762 18.7798 16.7467 19.6348C15.5172 20.4897 14.0899 20.9585 12.6247 20.9885C11.3995 21.0165 10.1845 20.7325 9.0788 20.1595L3.82515 22.1653L5.47467 16.4311C4.89857 15.2643 4.58615 13.9683 4.56286 12.6486C4.53175 11.0707 4.90919 9.51589 5.65291 8.15839C6.39662 6.80089 7.47724 5.6943 8.77372 4.96256C9.85552 4.34565 11.0581 4.01308 12.2835 3.99192L12.7477 3.9826C14.6851 4.05872 16.5305 4.90162 17.9305 6.34991C19.3305 7.7982 20.1868 9.7501 20.3354 11.8319L20.3454 12.3318Z" stroke="white" stroke-width="2" stroke-linecap="round" stroke-linejoin="round"/>
</svg>
