<svg width="24" height="24" viewBox="0 0 24 24" fill="none" xmlns="http://www.w3.org/2000/svg">
<path d="M19.4294 22V19C19.4294 17.9391 19.0381 16.9217 18.3415 16.1716C17.645 15.4214 16.7002 15 15.7151 15H8.28655C7.30146 15 6.35672 15.4214 5.66015 16.1716C4.96359 16.9217 4.57227 17.9391 4.57227 19V22" stroke="white" stroke-width="2" stroke-linecap="round" stroke-linejoin="round"/>
<path d="M4.57227 22H19.4294" stroke="white" stroke-width="2" stroke-linecap="round"/>
<path d="M11.9994 11C14.0508 11 15.7137 9.20914 15.7137 7C15.7137 4.79086 14.0508 3 11.9994 3C9.9481 3 8.28516 4.79086 8.28516 7C8.28516 9.20914 9.9481 11 11.9994 11Z" stroke="white" stroke-width="2" stroke-linecap="round" stroke-linejoin="round"/>
</svg>
