<svg width="87" height="16" viewBox="0 0 87 16" fill="none" xmlns="http://www.w3.org/2000/svg">
<path d="M0.15 15.2402V1.24023H9.05V4.07023H2.98V6.76023H8.67V9.59023H2.98V15.2402H0.15ZM0.92 14.4902H2.21V8.80023H7.9V7.51023H2.21V3.28023H8.3V1.99023H0.92V14.4902ZM19.1708 4.44023L21.2308 6.50023V9.35023L19.1708 11.4102H13.7308V11.8002L14.3408 12.4102H21.0908V15.2402H12.9608L10.9008 13.1802V6.50023L12.9608 4.44023H19.1708ZM18.1408 6.49023L19.1708 7.51023V8.57023L18.3008 9.44023H12.9008V7.56023L13.9708 6.49023H18.1408ZM18.7708 5.21023H13.3408L11.6108 6.94023V12.7902L13.3008 14.4802H20.2708V13.2002H13.9308L12.9008 12.1702V10.6702H18.8208L20.4508 9.05023V6.89023L18.7708 5.21023ZM17.7908 7.27023H14.3408L13.7308 7.88023V8.68023H17.9908L18.4108 8.26023V7.88023L17.7908 7.27023ZM23.5398 15.2402V12.4102H29.8398L30.4498 11.8002V11.8502L29.8598 11.2502H25.4998L23.4398 9.19023V6.50023L25.4998 4.44023H33.0698V7.27023H26.8698L26.2598 7.88023V7.82023L26.8698 8.43023H31.2098L33.2698 10.4902V13.1802L31.2098 15.2402H23.5398ZM24.2998 14.4502H30.8698L32.4998 12.8102V10.7902L30.8598 9.17023H26.4298L25.5198 8.26023V7.45023L26.4798 6.49023H32.3198V5.20023H25.8598L24.2198 6.84023V8.86023L25.8098 10.4502H30.2398L31.1998 11.3902V12.2002L30.2398 13.1602H24.2998V14.4502ZM37.3111 15.2402V7.26023H34.8211V4.44023H37.3111V1.70023H40.1411V4.44023H42.6211V7.26023H40.1411V12.4102H42.5511V15.2402H37.3111ZM38.0911 14.4702H41.7911V13.1902H39.3711V6.47023H41.8711V5.19023H39.3711V2.46023H38.0911V5.19023H35.5811V6.47023H38.0911V14.4702ZM47.0966 2.87023V0.240233H50.3166V2.87023H47.0966ZM47.9666 2.16023H49.4466V0.870234H47.9666V2.16023ZM44.8266 15.2402V12.4102H47.4966V7.27023H44.8266V4.44023H50.3166V12.4102H52.9866V15.2402H44.8266ZM45.5966 14.4702H52.2266V13.1902H49.4966V5.19023H45.5966V6.48023H48.2166V13.1902H45.5966V14.4702ZM56.2636 15.2402L53.8836 4.44023H56.9736L58.5636 12.4002H60.3336L61.8936 4.44023H64.9836L62.6436 15.2402H56.2636ZM56.9336 14.4602H61.9936L64.0036 5.20023H62.6136L60.9436 13.1502H57.9736L56.3036 5.20023H54.9136L56.9336 14.4602ZM68.5858 15.2402L66.5258 13.1802V10.3302L68.5858 8.27023H74.0258V7.88023L73.4158 7.27023H66.6658V4.44023H74.7958L76.8558 6.50023V13.1802L74.7958 15.2402H68.5858ZM69.6158 13.1902L68.5858 12.1702V11.1102L69.4558 10.2402H74.8558V12.1202L73.7858 13.1902H69.6158ZM68.9858 14.4702H74.4158L76.1458 12.7402V6.89023L74.4558 5.20023H67.4858V6.48023H73.8258L74.8558 7.51023V9.01023H68.9358L67.3058 10.6302V12.7902L68.9858 14.4702ZM69.9658 12.4102H73.4158L74.0258 11.8002V11.0002H69.7658L69.3458 11.4202V11.8002L69.9658 12.4102ZM78.4148 15.2402V12.4102H81.1148V3.07023H78.4148V0.240233H83.9348V12.4102H86.6348V15.2402H78.4148ZM79.1848 14.4702H85.8748V13.1902H83.1448V0.990234H79.1848V2.28023H81.8648V13.1902H79.1848V14.4702Z" fill="#EDC947"/>
</svg>
